<svg xmlns="http://www.w3.org/2000/svg" xmlns:xlink="http://www.w3.org/1999/xlink" viewBox="0 0 1921.5 376.8"><defs><style>.cls-1{fill:url(#linear-gradient);}.cls-2{fill:url(#linear-gradient-2);}.cls-3{fill:url(#linear-gradient-3);}.cls-4{fill:url(#linear-gradient-4);}.cls-5{fill:url(#linear-gradient-5);}.cls-6{fill:url(#linear-gradient-6);}.cls-7{fill:url(#linear-gradient-7);}.cls-8{fill:url(#linear-gradient-8);}.cls-9{fill:url(#linear-gradient-9);}.cls-10{fill:url(#linear-gradient-10);}.cls-11{fill:url(#linear-gradient-11);}.cls-12{fill:url(#linear-gradient-12);}.cls-13{fill:url(#linear-gradient-13);}.cls-14{fill:url(#linear-gradient-14);}.cls-15{fill:url(#linear-gradient-15);}.cls-16{fill:url(#linear-gradient-16);}.cls-17{fill:url(#linear-gradient-17);}.cls-18{fill:url(#linear-gradient-18);}.cls-19{fill:url(#linear-gradient-19);}.cls-20{fill:url(#linear-gradient-20);}.cls-21{fill:url(#linear-gradient-21);}.cls-22{fill:url(#linear-gradient-22);}.cls-23{fill:url(#linear-gradient-23);}.cls-24{fill:url(#linear-gradient-24);}.cls-25{fill:url(#linear-gradient-25);}.cls-26{fill:url(#linear-gradient-26);}.cls-27{fill:url(#linear-gradient-27);}</style><linearGradient id="linear-gradient" x1="523.67" y1="-645.43" x2="1678.71" y2="-645.43" gradientTransform="matrix(1.53, -0.69, -0.1, -0.37, -788.25, 639.3)" gradientUnits="userSpaceOnUse"><stop offset="0" stop-color="#fff"/><stop offset="0" stop-color="#00e1ff"/><stop offset="0.02" stop-color="#00dbff"/><stop offset="0.29" stop-color="#008eff"/><stop offset="0.54" stop-color="#0051ff"/><stop offset="0.75" stop-color="#0025ff"/><stop offset="0.91" stop-color="#000aff"/><stop offset="1" stop-color="blue"/></linearGradient><linearGradient id="linear-gradient-2" x1="530.51" y1="-656.96" x2="1671.16" y2="-656.96" xlink:href="#linear-gradient"/><linearGradient id="linear-gradient-3" x1="537.36" y1="-668.66" x2="1663.6" y2="-668.66" xlink:href="#linear-gradient"/><linearGradient id="linear-gradient-4" x1="544.2" y1="-680.57" x2="1656.05" y2="-680.57" xlink:href="#linear-gradient"/><linearGradient id="linear-gradient-5" x1="551.05" y1="-692.68" x2="1648.49" y2="-692.68" xlink:href="#linear-gradient"/><linearGradient id="linear-gradient-6" x1="557.89" y1="-705.04" x2="1640.94" y2="-705.04" xlink:href="#linear-gradient"/><linearGradient id="linear-gradient-7" x1="564.74" y1="-717.64" x2="1633.39" y2="-717.64" xlink:href="#linear-gradient"/><linearGradient id="linear-gradient-8" x1="571.58" y1="-730.35" x2="1625.83" y2="-730.35" xlink:href="#linear-gradient"/><linearGradient id="linear-gradient-9" x1="578.43" y1="-743.06" x2="1618.28" y2="-743.06" xlink:href="#linear-gradient"/><linearGradient id="linear-gradient-10" x1="585.27" y1="-755.78" x2="1610.72" y2="-755.78" xlink:href="#linear-gradient"/><linearGradient id="linear-gradient-11" x1="592.12" y1="-768.49" x2="1603.17" y2="-768.49" xlink:href="#linear-gradient"/><linearGradient id="linear-gradient-12" x1="598.96" y1="-781.2" x2="1595.61" y2="-781.2" xlink:href="#linear-gradient"/><linearGradient id="linear-gradient-13" x1="605.8" y1="-793.91" x2="1588.05" y2="-793.91" xlink:href="#linear-gradient"/><linearGradient id="linear-gradient-14" x1="612.65" y1="-806.62" x2="1580.5" y2="-806.62" xlink:href="#linear-gradient"/><linearGradient id="linear-gradient-15" x1="619.49" y1="-819.33" x2="1572.94" y2="-819.33" xlink:href="#linear-gradient"/><linearGradient id="linear-gradient-16" x1="626.34" y1="-832.04" x2="1565.39" y2="-832.04" xlink:href="#linear-gradient"/><linearGradient id="linear-gradient-17" x1="633.18" y1="-844.76" x2="1557.84" y2="-844.76" xlink:href="#linear-gradient"/><linearGradient id="linear-gradient-18" x1="640.02" y1="-857.47" x2="1550.29" y2="-857.47" xlink:href="#linear-gradient"/><linearGradient id="linear-gradient-19" x1="646.87" y1="-870.18" x2="1542.74" y2="-870.18" xlink:href="#linear-gradient"/><linearGradient id="linear-gradient-20" x1="653.71" y1="-882.89" x2="1535.2" y2="-882.89" xlink:href="#linear-gradient"/><linearGradient id="linear-gradient-21" x1="660.56" y1="-895.6" x2="1527.65" y2="-895.6" xlink:href="#linear-gradient"/><linearGradient id="linear-gradient-22" x1="667.4" y1="-908.31" x2="1520.1" y2="-908.31" xlink:href="#linear-gradient"/><linearGradient id="linear-gradient-23" x1="674.24" y1="-921.02" x2="1512.56" y2="-921.02" xlink:href="#linear-gradient"/><linearGradient id="linear-gradient-24" x1="681.09" y1="-933.73" x2="1505.01" y2="-933.73" xlink:href="#linear-gradient"/><linearGradient id="linear-gradient-25" x1="687.93" y1="-946.44" x2="1497.47" y2="-946.44" xlink:href="#linear-gradient"/><linearGradient id="linear-gradient-26" x1="694.77" y1="-959.15" x2="1489.92" y2="-959.15" xlink:href="#linear-gradient"/><linearGradient id="linear-gradient-27" x1="701.6" y1="-971.86" x2="1482.38" y2="-971.86" xlink:href="#linear-gradient"/></defs><g id="Layer_2" data-name="Layer 2"><g id="Layer_1-2" data-name="Layer 1"><path class="cls-1" d="M1921.5.44l-.28-.44c-269.64,129.41-496.09,226.69-673.06,289.13-139,49-250.64,77.67-332,85.1-112.51,10.29-136.42-21.7-166.7-62.2-21.22-28.38-45.27-60.55-104.73-85.31-35.7-14.87-80.37-25.31-132.76-31-47.17-5.15-101.76-6.59-162.26-4.29-53.26,2-112.43,7-175.88,14.79C120,212.79,61.63,221.62.21,232.41L0,233c306.9-54,523.57-55.89,644-5.72,59.35,24.72,83.37,56.85,104.57,85.2,30.36,40.61,54.34,72.68,167.26,62.36,37.79-3.46,82.28-11.47,132.26-23.82,58-14.33,125.35-35,200.14-61.37,84.12-29.69,180.13-67.5,285.35-112.38C1649.64,127.77,1780.15,68.28,1921.5.44Z"/><path class="cls-2" d="M1910.13,6.31l-.27-.44c-264.53,125.82-486.63,220.21-660.15,280.55-136.39,47.43-246,74.86-325.64,81.53-109.39,9.38-132.87-21.75-162.61-61.17-20.91-27.73-44.61-59.16-103.31-83.15-120.71-48.86-337.74-44.54-645.07,12.85l-.19.6c307.1-57.35,524-61.68,644.52-12.88,58.59,24,82.27,55.34,103.16,83,15.1,20,28.15,37.32,51.51,48.92,25.75,12.79,61.23,16.73,111.64,12.41,37-3.1,80.68-10.67,129.73-22.5,56.89-13.71,122.94-33.61,196.32-59.12,82.5-28.69,176.68-65.32,279.9-108.88C1643.48,130,1771.48,72.26,1910.13,6.31Z"/><path class="cls-3" d="M1898.76,12.18l-.26-.44c-259.21,122.13-476.95,213.6-647.18,271.86-133.58,45.71-241,72-319.36,78.07C826,369.9,803,339.71,773.9,301.49c-20.65-27.1-44-57.81-102.35-80.94-120-47.62-337.22-40.89-645.6,20l-.18.59c308.15-60.84,525.18-67.58,645-20C729,244.21,752.38,274.88,773,302c14.16,18.57,27.53,36.12,50.27,47.49,25.11,12.56,59.53,16.64,108.34,12.85,36.38-2.83,79.2-10,127.26-21.3,55.82-13.12,120.59-32.25,192.5-56.86,80.92-27.69,173.24-63.13,274.41-105.32C1637.38,132.28,1762.87,76.21,1898.76,12.18Z"/><path class="cls-4" d="M1887.39,18.05l-.25-.45c-254,118.51-467.39,207.07-634.24,263.23C1122,324.89,1016.68,350,939.85,355.39c-102.64,7.22-125.19-22.08-153.74-59.17-20.36-26.46-43.45-56.45-101.17-78.76C650,204,606,195.07,554.26,191.07c-46.84-3.62-101.19-3.34-161.54.83-99.86,6.91-218.93,24.65-353.9,52.71l-.16.59C347.5,181,564.7,171.84,684.21,218c57.61,22.27,80.67,52.23,101,78.65,13.85,18,26.93,35,49.09,46.14,24.49,12.32,57.91,16.51,105.19,13.18,35.68-2.51,77.66-9.25,124.77-20,54.72-12.52,118.21-30.89,188.68-54.61,79.31-26.7,169.79-60.94,268.94-101.79C1631.25,134.53,1754.23,80.18,1887.39,18.05Z"/><path class="cls-5" d="M1876,23.92l-.24-.45C1627,138.34,1418,224,1254.48,278.07c-128.22,42.41-231.42,66.31-306.73,71-99.37,6.24-121.46-22.17-149.43-58.15-20.08-25.82-42.84-55.09-100-76.58-34.7-13-78.43-21.4-130-24.84-46.73-3.11-101-2.25-161.3,2.54-100.28,8-219.83,27-355.35,56.61l-.15.59C361.11,181.7,578.48,170.15,697.61,215c57,21.45,79.76,50.68,99.81,76.47,13.54,17.41,26.33,33.86,47.9,44.79,23.87,12.09,56.3,16.38,102,13.51,35-2.19,76.12-8.5,122.27-18.75,53.63-11.91,115.83-29.53,184.87-52.36,77.7-25.7,166.34-58.76,263.46-98.25C1625.12,136.78,1745.58,84.15,1876,23.92Z"/><path class="cls-6" d="M1864.65,29.79l-.24-.45c-243.59,111.24-448.27,194-608.35,246-125.55,40.76-226.63,63.47-300.42,67.51-96.1,5.26-117.73-22.27-145.12-57.13-19.79-25.19-42.23-53.74-98.79-74.41-34.44-12.58-78-20.41-129.32-23.28-46.62-2.6-100.8-1.17-161,4.25-100.66,9.06-220.71,29.41-356.8,60.5l-.13.58C374.76,182.44,592.3,168.49,711,211.86c56.45,20.63,78.85,49.14,98.61,74.29,13.24,16.85,25.74,32.76,46.72,43.46,23.25,11.86,54.68,16.25,98.91,13.83,34.28-1.88,74.58-7.76,119.78-17.48,52.53-11.3,113.44-28.16,181-50.11,76.09-24.7,162.89-56.57,258-94.72C1619,139,1736.94,88.12,1864.65,29.79Z"/><path class="cls-7" d="M1853.28,35.66l-.23-.46c-238.39,107.63-438.72,187.48-595.41,237.36-122.89,39.11-221.84,60.63-294.11,64-92.83,4.3-115.07-23.7-140.81-56.11-19.51-24.56-41.62-52.4-97.59-72.23-34.2-12.12-77.49-19.43-128.65-21.73-46.51-2.09-100.61-.08-160.81,6-101,10.13-221.55,31.8-358.24,64.38l-.11.58c311.12-74.17,528.83-90.52,647.09-48.61,55.86,19.79,77.93,47.59,97.41,72.11C834.75,297.17,847,312.54,867.36,323c22.63,11.62,53.06,16.12,95.78,14.14,33.56-1.56,73-7,117.28-16.21,51.42-10.69,111-26.79,177.23-47.85,74.48-23.71,159.44-54.39,252.51-91.2C1612.85,141.29,1728.29,92.09,1853.28,35.66Z"/><path class="cls-8" d="M1841.91,41.53l-.22-.46c-233.21,104-429.18,181-582.47,228.73-120.23,37.47-217.06,57.81-287.8,60.46-89.57,3.35-111.32-23.73-136.51-55.09-19.22-23.93-41-51.05-96.39-70.06-34-11.65-77-18.44-128-20.17-46.39-1.57-100.41,1-160.57,7.67C348.63,203.83,227.62,226.8,90.3,260.88l-.1.57C402.14,184,620,165.27,737.81,205.69c55.27,19,77,46.05,96.21,69.94,12.62,15.71,24.54,30.55,44.35,40.81,22,11.39,51.44,16,92.65,14.44,32.86-1.23,71.48-6.26,114.78-14.93,50.32-10.08,108.67-25.42,173.42-45.6,72.87-22.71,156-52.21,247-87.67C1606.71,143.55,1719.64,96.06,1841.91,41.53Z"/><path class="cls-9" d="M1830.54,47.41l-.21-.47c-228,100.38-419.65,174.44-569.53,220.11-117.58,35.83-212.28,55-281.48,56.92C893,326.4,871.73,300.22,847.1,269.91c-18.93-23.3-40.38-49.71-95.18-67.89-33.72-11.18-76.56-17.44-127.33-18.6-46.27-1-100.21,2.1-160.32,9.37C362.63,205.1,241.14,229.37,103.17,265l-.08.57c312.78-80.64,530.84-101.81,648.12-62.91,54.68,18.13,76.1,44.5,95,67.77,24.69,30.4,46,56.65,132.69,54.22,32.15-.91,69.93-5.5,112.29-13.65,49.21-9.47,106.28-24.05,169.6-43.35,71.25-21.71,152.53-50,241.56-84.15C1600.57,145.81,1711,100,1830.54,47.41Z"/><path class="cls-10" d="M1819,52.8c-222.85,96.77-410.12,167.93-556.59,211.5-114.94,34.19-207.52,52.16-275.17,53.39-83.08,1.52-103.86-23.76-127.92-53-18.64-22.68-39.76-48.38-94-65.72-33.49-10.71-76.11-16.44-126.68-17-46.16-.54-100,3.19-160.08,11.08C376.65,206.37,254.68,232,116,269l-.07.57c313.64-83.83,531.88-107.4,648.64-70.06,54.09,17.3,75.18,43,93.79,65.61,24.13,29.35,45,54.71,128.38,53.18,31.44-.57,68.38-4.73,109.79-12.35,48.11-8.86,103.89-22.69,165.79-41.1,69.64-20.72,149.07-47.85,236.09-80.63,96-36.16,203.89-80.22,320.72-130.95Z"/><path class="cls-11" d="M1807.61,58.67C1589.92,151.82,1407,220.09,1264,261.56c-112.3,32.56-202.75,49.33-268.85,49.85-79.85.63-100.14-23.76-123.63-52-18.34-22.06-39.14-47.06-92.76-63.56-33.26-10.23-75.66-15.43-126-15.46-46,0-99.81,4.28-159.82,12.79-102.16,14.48-224.6,41.36-363.94,79.9l0,.56c314.52-87,532.93-113,649.15-77.2,53.5,16.46,74.26,41.42,92.57,63.44,23.56,28.32,43.91,52.78,124.08,52.15,30.72-.24,66.82-4,107.29-11.06,47-8.25,101.5-21.32,162-38.85,68-19.72,145.62-45.67,230.62-77.11,93.75-34.68,199.14-77,313.26-125.86Z"/><path class="cls-12" d="M1796.25,64.54c-212.53,89.54-391.08,154.91-530.72,194.28-109.67,30.93-198,46.51-262.53,46.31-76.63-.24-96.43-23.74-119.35-51-18-21.44-38.52-45.75-91.55-61.41-33-9.75-75.22-14.42-125.4-13.88-45.92.5-99.61,5.38-159.57,14.5-102.39,15.56-225.31,43.75-365.35,83.77l0,.55c315.42-90.13,534-118.51,649.67-84.35,52.9,15.63,73.33,39.88,91.35,61.29,23,27.3,42.84,50.87,119.78,51.11,30,.09,65.26-3.2,104.8-9.77,45.88-7.63,99.09-20,158.15-36.6,66.4-18.72,142.15-43.48,225.14-73.59C1582.14,152.59,1685,112,1796.43,65Z"/><path class="cls-13" d="M1784.89,70.41c-207.37,85.93-381.58,148.4-517.78,185.68-107.06,29.3-193.27,43.68-256.22,42.76-73.42-1.08-92.72-23.71-115.06-49.92-17.76-20.83-37.89-44.44-90.33-59.25-32.81-9.27-74.79-13.41-124.78-12.3-45.8,1-99.41,6.47-159.33,16.2-102.58,16.65-226,46.14-366.74,87.63l0,.56c316.32-93.25,535.07-124,650.19-91.5,52.3,14.78,72.39,38.34,90.12,59.13,11.06,13,21.5,25.22,38.39,34.36,18.9,10.22,43.39,15.21,77.09,15.71,29.28.43,63.7-2.42,102.29-8.47,44.78-7,96.7-18.58,154.34-34.35,64.78-17.73,138.69-41.31,219.68-70.08,89.26-31.72,189.64-70.64,298.33-115.68Z"/><path class="cls-14" d="M1773.53,76.27c-202.23,82.33-372.08,141.91-504.85,177.09-104.45,27.67-188.53,40.86-249.89,39.21-70.23-1.9-89-23.67-110.79-48.87-9-10.38-18.24-21.12-31.8-31.06-15.38-11.28-34.13-19.8-57.31-26-32.58-8.78-74.36-12.38-124.16-10.7-45.68,1.54-99.2,7.56-159.07,17.9C432.89,211.53,309,242.31,167.52,285.28v.55c317.24-96.32,536.17-129.51,650.71-98.65,51.7,13.94,71.46,36.81,88.89,57,10.74,12.44,20.89,24.19,37.19,33.1,18.27,10,41.79,15,74,15.92,28.55.77,62.12-1.64,99.78-7.17,43.66-6.4,94.3-17.2,150.52-32.1,63.16-16.73,135.23-39.13,214.21-66.57,87-30.23,184.88-67.44,290.87-110.59Z"/><path class="cls-15" d="M1762.17,82.14c-197.09,78.72-362.6,135.41-491.92,168.49-101.86,26.06-183.81,38.05-243.57,35.65-67-2.69-86.22-24.6-106.52-47.8-8.83-10.09-18-20.53-31.32-30.11-15.13-10.87-33.63-19-56.55-24.87-32.38-8.29-73.95-11.35-123.56-9.1-45.56,2.07-99,8.66-158.82,19.61C447,212.83,322.65,244.91,180.39,289.35v.54c142.19-44.41,266.44-76.47,369.3-95.29,125-22.86,219.84-26.39,281.92-10.5,51.11,13.08,69.69,34.32,87.66,54.85,10.42,11.91,20.26,23.16,36,31.85,17.65,9.75,40.18,14.87,70.93,16.1,27.82,1.12,60.54-.85,97.27-5.84,42.54-5.79,91.9-15.84,146.7-29.85,61.54-15.75,131.77-37,208.75-63.07,84.78-28.76,180.13-64.25,283.41-105.51Z"/><path class="cls-16" d="M1750.81,88c-192,75.12-353.12,128.92-479,159.91-99.27,24.43-179.09,35.23-237.23,32.08-63.88-3.45-82.52-24.48-102.26-46.74-17.69-19.95-36-40.58-86.64-52.84-32.17-7.79-73.54-10.31-123-7.5-45.45,2.6-98.8,9.76-158.57,21.31-103.08,19.91-227.86,53.28-370.89,99.18l0,.54C336.24,248.08,461,214.72,564,194.83,688.75,170.72,783.31,166.07,845,181c50.51,12.23,68.77,32.82,86.42,52.73,10.1,11.39,19.64,22.15,34.77,30.61,17,9.52,38.58,14.69,67.86,16.27,27.08,1.47,59-.06,94.75-4.53,41.42-5.17,89.5-14.46,142.89-27.6C1331.63,233.74,1400,213.7,1475,188.93c82.54-27.28,175.38-61.07,276-100.43Z"/><path class="cls-17" d="M1739.45,93.87c-186.84,71.53-343.66,122.44-466.08,151.34-96.7,22.82-174.39,32.41-230.9,28.51-60.72-4.19-78.82-24.33-98-45.66-17.37-19.33-35.34-39.32-85.4-50.73-32-7.29-73.15-9.26-122.38-5.87-45.33,3.11-98.6,10.86-158.32,23-103.21,21-228.45,55.66-372.25,103l0,.54c143.72-47.34,268.9-82,372-103C702.79,169.71,797.07,164,858.43,177.93c49.91,11.37,67.83,31.32,85.17,50.61,19.22,21.39,37.38,41.59,98.35,45.8,26.34,1.82,57.37.74,92.23-3.2,40.3-4.56,87.09-13.09,139.07-25.36,58.3-13.75,124.85-32.62,197.83-56.06,80.29-25.8,170.63-57.88,268.5-95.34Z"/><path class="cls-18" d="M1728.1,99.74c-181.74,67.93-334.21,116-453.17,142.76-94.15,21.21-169.71,29.6-224.56,24.94-57.6-4.9-75.15-24.17-93.74-44.57-17-18.72-34.69-38.09-84.16-48.63-31.78-6.77-72.76-8.2-121.81-4.24-45.21,3.65-98.39,12-158.06,24.71-103.33,22.07-229,58-373.6,106.84l.05.53c144.5-48.8,270.13-84.72,373.4-106.79,124.37-26.57,218.37-33.45,279.38-20.45,49.31,10.51,66.91,29.83,83.92,48.51,18.64,20.46,36.25,39.79,94.08,44.71,25.59,2.17,55.77,1.54,89.71-1.87,39.17-3.94,84.67-11.71,135.25-23.11,56.67-12.76,121.39-30.45,192.37-52.57,78-24.32,165.87-54.69,261-90.26Z"/><path class="cls-19" d="M1716.74,105.6C1540.09,169.94,1392,215.09,1276.48,239.8c-91.62,19.61-165,26.79-218.22,21.36-54.48-5.57-71.48-24-89.48-43.47-16.73-18.12-34-36.86-82.92-46.54-111.93-22.15-332,23.09-654,134.46l.06.53C553.7,194.86,773.5,149.64,885.23,171.76c48.72,9.64,66,28.33,82.67,46.41,18.05,19.55,35.11,38,89.81,43.6,24.83,2.54,54.16,2.37,87.17-.52,38-3.32,82.26-10.33,131.45-20.86,55-11.77,117.92-28.29,186.91-49.08,75.8-22.85,161.12-51.51,253.59-85.19Z"/><path class="cls-20" d="M1705.38,111.47C1533.82,172.22,1390,214.49,1278,237.12c-89.09,18-160.37,24-211.86,17.76s-67.83-23.77-85.24-42.36c-16.4-17.53-33.37-35.65-81.67-44.45-111.41-20.31-331.62,27.34-654.5,141.61l.07.52C567.45,196,787.42,148.41,898.64,168.67c48.12,8.77,65,26.85,81.4,44.33,17.46,18.65,34,36.27,85.55,42.49,24.06,2.9,52.53,3.19,84.63.84,36.9-2.71,79.84-9,127.63-18.62,53.41-10.79,114.46-26.13,181.46-45.6,73.56-21.38,156.37-48.33,246.15-80.12Z"/><path class="cls-21" d="M1694,117.34c-166.49,57.15-305.94,96.55-414.48,117.1-86.59,16.39-155.73,21.15-205.5,14.16-48.32-6.8-64.19-23.52-81-41.23C977,190.43,960.36,172.9,912.65,165c-31.25-5.19-71.68-4.94-120.18.73C747.6,171,694.68,181,635.19,195.51,531.54,220.82,404.51,260.6,257.62,313.75l.09.51c146.82-53.12,273.79-92.88,377.37-118.17,123.72-30.21,216.9-40.47,277-30.5,47.53,7.89,64.11,25.37,80.14,42.26,8.08,8.52,16.43,17.32,28.62,24.63,13.66,8.19,30.89,13.67,52.67,16.73,23.28,3.27,50.9,4,82.07,2.2,35.77-2.08,77.43-7.59,123.82-16.38,51.78-9.8,111-24,176-42.12,71.31-19.9,151.62-45.15,238.7-75Z"/><path class="cls-22" d="M1682.67,123.2c-161.43,53.57-296.55,90.1-401.6,108.57C1197,246.56,1130,250.11,1082,242.32c-45.29-7.35-61.29-24-76.75-40.08-15.74-16.38-32-33.31-79.16-40.35-31.09-4.64-71.35-3.82-119.66,2.42-44.77,5.79-97.6,16.38-157,31.5-103.74,26.38-231.21,67.43-378.86,122l.1.52c147.59-54.56,275-95.59,378.68-121.95,123.47-31.4,216.39-42.8,276.17-33.88,47,7,63.19,23.89,78.88,40.22,15.51,16.14,31.55,32.83,77,40.2,22.5,3.66,49.25,4.86,79.51,3.58,34.63-1.46,75-6.22,120-14.13,50.15-8.82,107.55-21.82,170.59-38.65,69.06-18.43,146.86-42,231.26-70Z"/><path class="cls-23" d="M1671.31,129.07c-156.38,50-287.17,83.64-388.73,100-81.64,13.19-146.49,15.52-192.74,6.92-42.28-7.85-57.65-23.64-72.51-38.91-7.74-7.94-15.73-16.16-27.41-22.94-13.07-7.59-29.58-12.62-50.49-15.37-30.94-4.08-71-2.69-119.17,4.13-44.65,6.32-97.39,17.49-156.75,33.18-103.86,27.46-231.76,69.77-380.15,125.76l.11.51c148.33-56,276.17-98.26,380-125.7,123.23-32.58,215.9-45.12,275.42-37.27,46.38,6.11,61.54,21.69,77.6,38.19,14.91,15.31,30.32,31.14,72.77,39,21.7,4,47.58,5.7,76.93,5,33.47-.84,72.57-4.84,116.2-11.89,48.52-7.83,104.09-19.67,165.16-35.18,66.81-17,142.11-38.81,223.82-64.92Z"/><path class="cls-24" d="M1660,134.93c-273.8,83.92-462.95,115.82-562.22,94.82-39.31-8.31-54-23.26-68.28-37.72-15.75-16-30.62-31.08-76.64-36.31-30.8-3.5-70.73-1.53-118.69,5.87-44.55,6.87-97.2,18.6-156.49,34.87C573.66,225,445.33,268.56,296.23,326l.13.5c149-57.36,277.3-100.91,381.23-129.43,123-33.74,215.38-47.43,274.67-40.69,45.81,5.22,60.63,20.26,76.32,36.19,14.29,14.5,29.06,29.49,68.52,37.84,20.89,4.42,45.9,6.56,74.33,6.36,32.32-.22,70.14-3.47,112.39-9.65,46.89-6.86,100.63-17.53,159.74-31.73,64.57-15.5,137.37-35.64,216.4-59.86Z"/><path class="cls-25" d="M1648.61,140.8c-265.39,77.62-448.07,105.43-543,82.67-36.37-8.72-50.45-22.84-64.05-36.51-15.38-15.43-29.9-30-75.38-34.33-30.68-2.91-70.45-.34-118.23,7.63-44.45,7.42-97,19.72-156.22,36.56C587.62,226.44,458.88,271.25,309.1,330l.14.5C459,271.77,587.64,227,691.72,197.38c122.69-34.89,214.86-49.74,273.94-44.13,45.26,4.3,59.73,18.82,75.05,34.2,13.65,13.7,27.76,27.87,64.27,36.62,20.06,4.81,44.19,7.43,71.7,7.78,31.17.4,67.71-2.1,108.59-7.41,45.26-5.89,97.19-15.4,154.34-28.28,62.32-14,132.62-32.48,209-54.81Z"/><path class="cls-26" d="M1637.25,146.66C1380.19,218,1204,241.7,1113.53,217.2c-33.47-9.07-46.86-22.39-59.82-35.27-15-14.91-29.16-29-74.11-32.38-30.56-2.31-70.19.86-117.79,9.42-44.36,8-96.82,20.84-155.94,38.24C601.53,227.92,472.37,274,322,334.08l.15.5c150.33-60.1,279.44-106.13,383.71-136.82,122.4-36,214.32-52,273.23-47.6,44.72,3.38,58.83,17.4,73.77,32.26,13,12.91,26.42,26.27,60,35.37,19.22,5.21,42.45,8.3,69.06,9.2,30,1,65.26-.72,104.79-5.17,43.62-4.91,93.73-13.27,148.94-24.83,60.07-12.58,127.88-29.33,201.55-49.76Z"/><path class="cls-27" d="M1625.9,152.53c-248.84,65-418.57,84.63-504.47,58.39-30.61-9.36-43.88-22.45-55.59-34-15.24-15-28.4-28-72.85-30.46-30.46-1.67-70,2.11-117.37,11.25-44.27,8.53-96.65,22-155.67,39.92-104.58,31.81-234.15,79.09-385.1,140.52l.16.49C485.9,277.23,615.42,230,720,198.18,842,161,933.71,143.85,992.48,147.08c44.21,2.43,57.32,15.36,72.49,30.33,11.74,11.58,25,24.71,55.77,34.09,18.35,5.61,40.69,9.2,66.39,10.65,28.84,1.63,62.82.65,101-2.94,42-3.94,90.29-11.14,143.56-21.39,57.82-11.13,123.14-26.18,194.14-44.72Z"/></g></g></svg>