<svg xmlns="http://www.w3.org/2000/svg" viewBox="0 0 247.32 196.04"><defs><style>.cls-1{fill:#4d519e;}</style></defs><g id="Layer_2" data-name="Layer 2"><g id="Layer_1-2" data-name="Layer 1"><circle class="cls-1" cx="238.43" cy="8.89" r="8.89" transform="translate(14.75 91.92) rotate(-22.5)"/><circle class="cls-1" cx="212.32" cy="8.89" r="8.28"/><path class="cls-1" d="M193.86,8.89a7.67,7.67,0,1,1-7.66-7.67A7.67,7.67,0,0,1,193.86,8.89Z"/><circle class="cls-1" cx="160.08" cy="8.89" r="7.05"/><circle class="cls-1" cx="133.96" cy="8.89" r="6.44" transform="translate(94.53 137.23) rotate(-76.72)"/><circle class="cls-1" cx="107.85" cy="8.89" r="5.83" transform="translate(25.3 78.86) rotate(-45)"/><circle class="cls-1" cx="81.73" cy="8.89" r="5.22" transform="translate(42.24 81) rotate(-67.5)"/><path class="cls-1" d="M60.22,8.89a4.61,4.61,0,1,1-4.61-4.6A4.6,4.6,0,0,1,60.22,8.89Z"/><path class="cls-1" d="M33.49,8.89a4,4,0,1,1-4-4A4,4,0,0,1,33.49,8.89Z"/><path class="cls-1" d="M6.76,8.89A3.38,3.38,0,1,1,3.38,5.51,3.38,3.38,0,0,1,6.76,8.89Z"/><circle class="cls-1" cx="238.43" cy="38.6" r="8.89" transform="translate(3.38 94.18) rotate(-22.5)"/><path class="cls-1" d="M220.59,38.6a8.28,8.28,0,1,1-8.27-8.28A8.28,8.28,0,0,1,220.59,38.6Z"/><circle class="cls-1" cx="186.2" cy="38.6" r="7.67"/><path class="cls-1" d="M167.13,38.6a7.05,7.05,0,1,1-7-7A7,7,0,0,1,167.13,38.6Z"/><path class="cls-1" d="M140.41,38.6A6.45,6.45,0,1,1,134,32.16,6.44,6.44,0,0,1,140.41,38.6Z"/><circle class="cls-1" cx="107.85" cy="38.6" r="5.83" transform="translate(52.47 138.87) rotate(-80.78)"/><circle class="cls-1" cx="81.73" cy="38.6" r="5.22"/><path class="cls-1" d="M60.22,38.6A4.61,4.61,0,1,1,55.61,34,4.6,4.6,0,0,1,60.22,38.6Z"/><path class="cls-1" d="M33.49,38.6a4,4,0,1,1-4-4A4,4,0,0,1,33.49,38.6Z"/><path class="cls-1" d="M6.76,38.6a3.38,3.38,0,1,1-3.38-3.38A3.38,3.38,0,0,1,6.76,38.6Z"/><circle class="cls-1" cx="238.43" cy="68.31" r="8.89" transform="translate(-3.06 124.87) rotate(-29.17)"/><circle class="cls-1" cx="212.32" cy="68.31" r="8.28"/><circle class="cls-1" cx="186.2" cy="68.31" r="7.67"/><circle class="cls-1" cx="160.08" cy="68.31" r="7.05"/><path class="cls-1" d="M140.41,68.31A6.45,6.45,0,1,1,134,61.87,6.44,6.44,0,0,1,140.41,68.31Z"/><circle class="cls-1" cx="107.85" cy="68.31" r="5.83"/><circle class="cls-1" cx="81.73" cy="68.31" r="5.22"/><path class="cls-1" d="M60.22,68.31a4.61,4.61,0,1,1-4.61-4.6A4.6,4.6,0,0,1,60.22,68.31Z"/><path class="cls-1" d="M33.49,68.31a4,4,0,1,1-4-4A4,4,0,0,1,33.49,68.31Z"/><path class="cls-1" d="M6.76,68.31a3.38,3.38,0,1,1-3.38-3.38A3.38,3.38,0,0,1,6.76,68.31Z"/><circle class="cls-1" cx="238.43" cy="98.02" r="8.89" transform="translate(88.25 307.55) rotate(-76.72)"/><path class="cls-1" d="M220.59,98a8.28,8.28,0,1,1-8.27-8.28A8.28,8.28,0,0,1,220.59,98Z"/><circle class="cls-1" cx="186.2" cy="98.02" r="7.67"/><path class="cls-1" d="M167.13,98a7.05,7.05,0,1,1-7-7A7,7,0,0,1,167.13,98Z"/><circle class="cls-1" cx="133.96" cy="98.02" r="6.44"/><circle class="cls-1" cx="107.85" cy="98.02" r="5.83"/><circle class="cls-1" cx="81.73" cy="98.02" r="5.22"/><path class="cls-1" d="M60.22,98a4.61,4.61,0,1,1-4.61-4.6A4.61,4.61,0,0,1,60.22,98Z"/><path class="cls-1" d="M33.49,98a4,4,0,1,1-4-4A4,4,0,0,1,33.49,98Z"/><path class="cls-1" d="M6.76,98a3.38,3.38,0,1,1-3.38-3.38A3.38,3.38,0,0,1,6.76,98Z"/><circle class="cls-1" cx="238.43" cy="127.73" r="8.89" transform="translate(-20.48 206.01) rotate(-45)"/><circle class="cls-1" cx="212.32" cy="127.73" r="8.28" transform="translate(13.06 275) rotate(-67.5)"/><circle class="cls-1" cx="186.2" cy="127.73" r="7.67" transform="translate(30.29 291.06) rotate(-80.78)"/><circle class="cls-1" cx="160.08" cy="127.73" r="7.05" transform="translate(-1.01 254.18) rotate(-76.72)"/><path class="cls-1" d="M140.41,127.73a6.45,6.45,0,1,1-6.45-6.44A6.44,6.44,0,0,1,140.41,127.73Z"/><circle class="cls-1" cx="107.85" cy="127.73" r="5.83"/><circle class="cls-1" cx="81.73" cy="127.73" r="5.22"/><circle class="cls-1" cx="55.61" cy="127.73" r="4.6"/><path class="cls-1" d="M33.49,127.73a4,4,0,1,1-4-4A4,4,0,0,1,33.49,127.73Z"/><path class="cls-1" d="M6.76,127.73a3.38,3.38,0,1,1-3.38-3.38A3.38,3.38,0,0,1,6.76,127.73Z"/><path class="cls-1" d="M247.32,157.44a8.89,8.89,0,1,1-8.89-8.89A8.89,8.89,0,0,1,247.32,157.44Z"/><circle class="cls-1" cx="212.32" cy="157.44" r="8.28"/><circle class="cls-1" cx="186.2" cy="157.44" r="7.67" transform="translate(-45.62 233.06) rotate(-58.28)"/><circle class="cls-1" cx="160.08" cy="157.44" r="7.05" transform="translate(-29.93 277.07) rotate(-76.72)"/><circle class="cls-1" cx="133.96" cy="157.44" r="6.44" transform="translate(-72.09 140.84) rotate(-45)"/><circle class="cls-1" cx="107.85" cy="157.44" r="5.83"/><circle class="cls-1" cx="81.73" cy="157.44" r="5.22"/><circle class="cls-1" cx="55.61" cy="157.44" r="4.6"/><path class="cls-1" d="M33.49,157.44a4,4,0,1,1-4-4A4,4,0,0,1,33.49,157.44Z"/><path class="cls-1" d="M6.76,157.44a3.38,3.38,0,1,1-3.38-3.38A3.38,3.38,0,0,1,6.76,157.44Z"/><circle class="cls-1" cx="238.43" cy="187.15" r="8.89"/><circle class="cls-1" cx="212.32" cy="187.15" r="8.28"/><circle class="cls-1" cx="186.2" cy="187.15" r="7.67" transform="translate(-77.8 186.48) rotate(-45)"/><circle class="cls-1" cx="160.08" cy="187.15" r="7.05" transform="translate(-50.3 315.19) rotate(-80.78)"/><circle class="cls-1" cx="133.96" cy="187.15" r="6.44" transform="translate(-93.1 149.54) rotate(-45)"/><circle class="cls-1" cx="107.85" cy="187.15" r="5.83"/><circle class="cls-1" cx="81.73" cy="187.15" r="5.22"/><circle class="cls-1" cx="55.61" cy="187.15" r="4.6"/><path class="cls-1" d="M33.49,187.15a4,4,0,1,1-4-4A4,4,0,0,1,33.49,187.15Z"/><path class="cls-1" d="M6.76,187.15a3.38,3.38,0,1,1-3.38-3.38A3.38,3.38,0,0,1,6.76,187.15Z"/></g></g></svg>