<svg xmlns="http://www.w3.org/2000/svg" xmlns:xlink="http://www.w3.org/1999/xlink" viewBox="0 0 2829.26 2848.05"><defs><style>.cls-1{fill:none;}.cls-2{isolation:isolate;}.cls-3{fill:#6247fc;opacity:0.16;}.cls-4{clip-path:url(#clip-path);}.cls-5{clip-path:url(#clip-path-2);}.cls-6{fill:url(#linear-gradient);}.cls-7{fill:#beb8f2;}.cls-10,.cls-7{mix-blend-mode:soft-light;}.cls-8{fill:url(#linear-gradient-2);}.cls-9{clip-path:url(#clip-path-3);}.cls-10{fill:#fcfdfe;}.cls-11{fill:url(#linear-gradient-3);}.cls-12{fill:url(#linear-gradient-4);}.cls-13{fill:url(#linear-gradient-5);}.cls-14{fill:url(#linear-gradient-6);}.cls-15{fill:url(#linear-gradient-7);}.cls-16{fill:url(#linear-gradient-8);}.cls-17,.cls-20,.cls-23{fill:#fff;}.cls-17{mix-blend-mode:overlay;}.cls-17,.cls-24{opacity:0.2;}.cls-18{clip-path:url(#clip-path-4);}.cls-19{fill:url(#linear-gradient-9);}.cls-20,.cls-28{opacity:0.17;}.cls-21{fill:url(#linear-gradient-10);}.cls-22{fill:url(#linear-gradient-11);}.cls-24,.cls-31,.cls-34,.cls-45{mix-blend-mode:multiply;}.cls-25{fill:url(#linear-gradient-12);}.cls-26{fill:url(#linear-gradient-13);}.cls-27{fill:url(#linear-gradient-14);}.cls-29{fill:url(#linear-gradient-15);}.cls-30{fill:url(#linear-gradient-16);}.cls-31,.cls-34,.cls-45{opacity:0.3;}.cls-31{fill:url(#linear-gradient-17);}.cls-32{fill:url(#linear-gradient-18);}.cls-33{fill:url(#linear-gradient-19);}.cls-35{fill:url(#linear-gradient-20);}.cls-36{fill:url(#linear-gradient-21);}.cls-37{fill:#d8dee8;}.cls-38{fill:url(#linear-gradient-22);}.cls-39{fill:url(#linear-gradient-23);}.cls-40{fill:url(#linear-gradient-24);}.cls-41{fill:url(#linear-gradient-25);}.cls-42{fill:url(#linear-gradient-26);}.cls-43{fill:#f4f7fa;}.cls-44{fill:#26264f;}.cls-45{fill:url(#linear-gradient-27);}</style><clipPath id="clip-path"><polygon class="cls-1" points="1529.59 2141.54 158.1 1879.93 57.05 38.4 1529.59 38.4 1529.59 2141.54"/></clipPath><clipPath id="clip-path-2"><path class="cls-1" d="M880.82,2700.34c-189.59-390.06,76.76-573.63,179.17-673,154.45-149.82,239.4-373,15.93-484.77s7.22-560.24,284-753.54c270.82-189.16,160-946.27-456-609.29C536.06,381,587.69,897.6,567.15,1165s-322,272.72-222.5,606.34c85,285,196.94,631.43,67.15,816.81S973.75,2891.52,880.82,2700.34Z"/></clipPath><linearGradient id="linear-gradient" x1="1150.76" y1="778.07" x2="137.36" y2="3205.04" gradientUnits="userSpaceOnUse"><stop offset="0" stop-color="#ffc444"/><stop offset="1" stop-color="#f36f56"/></linearGradient><linearGradient id="linear-gradient-2" x1="3691.98" y1="586.54" x2="3135.38" y2="3010.68" gradientTransform="matrix(-1, 0, 0, 1, 4066.47, 0)" gradientUnits="userSpaceOnUse"><stop offset="0" stop-color="#ff9085"/><stop offset="1" stop-color="#fb6fbb"/></linearGradient><clipPath id="clip-path-3"><path class="cls-1" d="M874.59,2413.23c175.73-395.17-250.25-525.93-62.47-1053,49.94-140.18,189.12-389.7,118.24-546.34-80.75-178.45-217.43-91.16-260.57-230.48-67.43-217.75-251.91-361-435.68-239.85C52.74,463.16,79.78,859,349,1277.73c161.21,323.75,140.88,392.78,63.12,549.41-54.46,109.71-264.57,367.78-160.86,547.1S809.82,2558.87,874.59,2413.23Z"/></clipPath><linearGradient id="linear-gradient-3" x1="-484.75" y1="2483.69" x2="143.67" y2="2483.69" gradientTransform="matrix(-1, 0, 0, 1, 621.22, 0)" gradientUnits="userSpaceOnUse"><stop offset="0" stop-color="#444b8c"/><stop offset="1" stop-color="#26264f"/></linearGradient><linearGradient id="linear-gradient-4" x1="-1551.77" y1="2186.87" x2="-377.97" y2="1808.53" xlink:href="#linear-gradient-3"/><linearGradient id="linear-gradient-5" x1="-1804.01" y1="1521.55" x2="312" y2="1521.55" xlink:href="#linear-gradient-3"/><linearGradient id="linear-gradient-6" x1="-1817.95" y1="1521.55" x2="289.34" y2="1521.55" gradientTransform="matrix(-1, 0, 0, 1, 621.22, 0)" gradientUnits="userSpaceOnUse"><stop offset="0" stop-color="#6247fc"/><stop offset="1" stop-color="#30237d"/></linearGradient><linearGradient id="linear-gradient-7" x1="-1797.25" y1="1521.48" x2="243.39" y2="1521.48" gradientTransform="matrix(-1, 0, 0, 1, 621.22, 0)" gradientUnits="userSpaceOnUse"><stop offset="0" stop-color="#6154e2"/><stop offset="1" stop-color="#413b7a"/></linearGradient><linearGradient id="linear-gradient-8" x1="-1782.63" y1="1464.17" x2="211.62" y2="1464.17" xlink:href="#linear-gradient-3"/><clipPath id="clip-path-4"><path class="cls-1" d="M1110.19,1952l857.57-93.69c52.83-5.77,93.26-58.5,93.26-121.63V1220c0-63.14-40.43-115.87-93.26-121.64l-857.57-93.68c-60.14-6.57-112,49.77-112,121.64v704C998.17,1902.22,1050.05,1958.56,1110.19,1952Z"/></clipPath><linearGradient id="linear-gradient-9" x1="-2079.13" y1="2076.86" x2="-1117.48" y2="1590" gradientTransform="matrix(-1, 0, 0, 1, 621.22, 0)" gradientUnits="userSpaceOnUse"><stop offset="0" stop-color="#8c78ff"/><stop offset="1" stop-color="#6b55e6"/></linearGradient><linearGradient id="linear-gradient-10" x1="3275.84" y1="708.16" x2="3361.54" y2="634.6" gradientTransform="matrix(0.99, 0.14, -0.14, 0.99, -668.9, -113.3)" gradientUnits="userSpaceOnUse"><stop offset="0" stop-color="#aa80f9"/><stop offset="1" stop-color="#6165d7"/></linearGradient><linearGradient id="linear-gradient-11" x1="3008.73" y1="728.03" x2="3470.48" y2="728.03" xlink:href="#linear-gradient-10"/><linearGradient id="linear-gradient-12" x1="3179.51" y1="749.92" x2="3470.48" y2="749.92" xlink:href="#linear-gradient-10"/><linearGradient id="linear-gradient-13" x1="3236.22" y1="374.52" x2="3510.18" y2="389.2" gradientTransform="translate(-1590.62 100.15) rotate(-1.56)" gradientUnits="userSpaceOnUse"><stop offset="0" stop-color="#311944"/><stop offset="1" stop-color="#893976"/></linearGradient><linearGradient id="linear-gradient-14" x1="-4563.81" y1="264.19" x2="-4328.41" y2="700.79" gradientTransform="matrix(-1, 0.03, 0.03, 1, -2728.89, 130.86)" xlink:href="#linear-gradient-2"/><linearGradient id="linear-gradient-15" x1="2974.25" y1="1197.19" x2="3717.84" y2="570.05" xlink:href="#linear-gradient-13"/><linearGradient id="linear-gradient-16" x1="-4611.13" y1="674.63" x2="-4310.78" y2="1231.7" gradientTransform="matrix(-1, 0.03, 0.03, 1, -2728.89, 130.86)" gradientUnits="userSpaceOnUse"><stop offset="0" stop-color="#e38ddd"/><stop offset="1" stop-color="#9571f6"/></linearGradient><linearGradient id="linear-gradient-17" x1="2768.06" y1="694.16" x2="3082.75" y2="1277.82" gradientTransform="translate(-1102.62 86.81) rotate(-1.56)" xlink:href="#linear-gradient-16"/><linearGradient id="linear-gradient-18" x1="3740.85" y1="330.44" x2="3890.59" y2="501.82" gradientTransform="translate(-1562.01 99.37) rotate(-1.56)" xlink:href="#linear-gradient"/><linearGradient id="linear-gradient-19" x1="-5090.84" y1="357.68" x2="-4798.54" y2="899.82" gradientTransform="matrix(-1, 0.03, 0.03, 1, -2700.28, 130.08)" xlink:href="#linear-gradient"/><linearGradient id="linear-gradient-20" x1="-5172.27" y1="386.41" x2="-4884.04" y2="964.82" gradientTransform="matrix(-1, 0.03, 0.03, 1, -2700.28, 130.08)" xlink:href="#linear-gradient"/><linearGradient id="linear-gradient-21" x1="5920.29" y1="2578.56" x2="5967.05" y2="2720.96" gradientTransform="translate(-4069.98)" xlink:href="#linear-gradient-3"/><linearGradient id="linear-gradient-22" x1="6252.4" y1="2444.59" x2="6345.03" y2="2218.51" gradientTransform="translate(-4069.98)" gradientUnits="userSpaceOnUse"><stop offset="0" stop-color="#311944"/><stop offset="1" stop-color="#6b3976"/></linearGradient><linearGradient id="linear-gradient-23" x1="5791.85" y1="2610.72" x2="5842.54" y2="2765.1" gradientTransform="translate(-4069.98)" xlink:href="#linear-gradient-3"/><linearGradient id="linear-gradient-24" x1="6074.62" y1="2744.08" x2="6182.95" y2="2382.97" xlink:href="#linear-gradient-22"/><linearGradient id="linear-gradient-25" x1="6573.9" y1="1974.3" x2="6558.2" y2="2313.43" gradientTransform="translate(-4069.98)" gradientUnits="userSpaceOnUse"><stop offset="0" stop-color="#6247fc"/><stop offset="1" stop-color="#30237d"/></linearGradient><linearGradient id="linear-gradient-26" x1="6244.11" y1="2018.02" x2="6300.63" y2="2850.13" gradientTransform="translate(-4069.98)" gradientUnits="userSpaceOnUse"><stop offset="0" stop-color="#5840e3"/><stop offset="1" stop-color="#30237d"/></linearGradient><linearGradient id="linear-gradient-27" x1="6137.9" y1="2025.24" x2="6194.42" y2="2857.34" gradientTransform="translate(-4069.98)" xlink:href="#linear-gradient"/></defs><g class="cls-2"><g id="Illustration"><path class="cls-3" d="M1921.06,59.72c-211.6-47.21-431.6-69.83-646.71-55.41C1083.7,17.09,867.59,52,714.17,177c-73.11,59.55-160.3,166.57-184.22,261,0,0-125.89,497-377.65,603.44S-274.3,2965.29,1634.92,2787.81c0,0,1121.37-46.51,1188.89-1386.11,16.31-323.61,7.2-679.36-188.2-949.95C2485.88,244.39,2276.09,152.2,2035,87.68Q1978.54,72.57,1921.06,59.72Z"/><g class="cls-4"><g class="cls-5"><path class="cls-6" d="M1359.88,789.05c-276.74,193.3-464.27,582.8-258.11,744.62,182.21,143,112.67,343.87-41.78,493.69C983.12,2101.93,813.91,2224,814.44,2445.1c-13.77-2.1,128.07,354.29,114.1,358-62.28,16.51-186-36.61-188.88,45l-370-151.75c9.07-86.46,42.83-166.2,95.25-241.07,129.79-185.38-35.29-398.94-120.3-683.91-99.51-333.61,202-339,222.5-606.33S536.06,381,903.93,179.76C1519.93-157.22,1630.7,599.88,1359.88,789.05Z"/><path class="cls-7" d="M1568.87,280.67,1567.43,270c-280.14,56.52-501.27,245.31-657.22,561.11q-28.32,57.35-53.78,120.27c-25.67-358.68,79.89-848,81-852.93l-7.86-3.28c-1.1,5.06-110,509.84-80.12,871.8l.84-.09c-91.72,232.05-154.87,518.85-188.06,855.22-6.66,67.53-11.86,134.84-15.85,201.35-60.73-312.65-308.13-536.53-310.72-538.84l-4.44,8.94c2.66,2.37,265.63,240.39,313.07,566.5-3.9,72.76-6.36,144.4-7.68,214.14,0,0,0,.05,0,.07h0c-2.35,124.5-1.07,242.93,2.21,350.74l8.1-2.15c-3.22-106.69-4.46-223.77-2.16-346.79,97.62-504.87,622.7-600.71,627.89-601.07l-.13-10.84c-5-.27-509,94.35-626.81,568.9,3.35-132.1,10.92-270.34,24.66-409.48C705.47,1467.6,786.06,1064.89,961.43,757.7c276.42-208,530.26-85.69,532.8-84.42l2.69-10.14c-2.53-1.26-249.59-120.52-522.77,72.77C1110.31,507,1301.41,334.64,1568.87,280.67ZM393.69,2503.09,387.5,2510c1.48,2.33,6.14,7.23,17.49,19.07C428.9,2554,473.29,2600.34,518.1,2657l9.61-2.54c-46.47-59.4-93-108-117.77-133.84C401.79,2512.06,394.75,2504.72,393.69,2503.09Z"/></g><path class="cls-8" d="M901.84,2106.44c-22.08-18.25,20.14,59.43-9.09,59.43-60.09,0-30,55-195.88,17.32H233.32c33.95-139.7,141.93-281.82,178.77-356,77.76-156.63,98.1-225.66-63.12-549.41C79.78,859,52.74,463.16,234.11,343.57c183.77-121.18,368.25,22.1,435.68,239.85,43.14,139.31,179.82,52,260.58,230.48,70.87,156.64-68.31,406.16-118.25,546.34C681.67,1726.39,847.38,1901.29,901.84,2106.44Z"/><g class="cls-9"><path class="cls-10" d="M597.46,1584.57C572.32,1225.66,890.89,711,894.11,705.81l-6.54-4.65c-3,4.82-279.85,452.14-298.35,805.74q-14.15-124.85-35.18-246-15.48-89-34.74-175.91l.05,0-.1-.22c-23.81-107.7-51.82-212.71-83.86-314.2l.12,0c-24.4-198.72-6.86-413.52-1.09-484.1,1.39-17.09,1.87-23.1,1.69-25.23l-7.83.74c.11,1.63-.68,11.4-1.69,23.76C421.23,351.32,405.73,541,423,727.3a.74.74,0,0,1-1.45.3q-11.83-35.88-24.34-71.14C349.89,523.34,296,398.46,237,285.3c-10.28-19.72-21.83-39.28-33-58.19-14.87-25.2-30.26-51.25-42.76-77.9l-7,3.75c12.67,27,28.16,53.25,43.14,78.62,11.11,18.82,22.6,38.28,32.78,57.8,58.83,112.8,112.56,237.31,159.7,370,45.05,126.84,83.55,260,115.14,397.75-94.4-157-390.34-273.28-403.61-278.43l-2.68,7.88c3.4,1.32,340.36,133.69,413.12,301q19.06,86.34,34.52,174.86c45.71,262.74,67,540.24,63.34,824.79-.41,31.83-1.24,63.84-2.28,95.94h7.87c1-32.06,1.86-64,2.27-95.83a4672.09,4672.09,0,0,0-20.24-502.77Zm-334,444.18c1.43,1.41,63.84,64.09,132.66,154.44h10c-70.76-93.74-135.82-159.12-137.27-160.57Z"/></g></g><path class="cls-11" d="M1106,2322v81.44l-250.08,242h-77L875.12,2441s44.88-26.83-51.3-26.83l-346.27,69.51,4.94-21.66,411.86-133.12S1022.6,2322,1106,2322Z"/><path class="cls-12" d="M2127.91,2162.13l2.67,31,144.12,95.23,22.08-21.36-84.49-85.66s-16.79-5,8.34-13.41l79.67-5.72-6-4.89-103.13-8.08S2155.33,2155.68,2127.91,2162.13Z"/><path class="cls-13" d="M407.57,2436.19c-53.85,8.32-98.35-22.92-98.35-69.76V678c0-46.84,44.5-78.81,98.35-71.37L2380.34,879c24.87,3.43,44.89,31.61,44.89,62.84V2067.73c0,31.23-20,59.74-44.89,63.58Z"/><path class="cls-14" d="M429.77,2434.09c-53.6,8.29-97.89-22.88-97.89-69.62V680c0-46.73,44.29-78.64,97.89-71.23L2394.44,880.2c24.78,3.42,44.72,31.54,44.72,62.72V2066.74c0,31.18-19.94,59.63-44.72,63.46Z"/><path class="cls-15" d="M2394.44,906.8,429.77,647.59c-28.58-3.77-51.94,13.28-51.94,38.12V2358c0,24.84,23.36,41.51,51.94,37.26L2394.44,2103.6c13.3-2,24-17.16,24-33.94V940.34C2418.46,923.57,2407.74,908.55,2394.44,906.8Z"/><path class="cls-16" d="M429.77,2253.57c-11.1,1.4-20.17-5.3-20.17-14.93v-1549c0-9.63,9.06-16.31,20.17-14.89L2394.44,925.42c5.19.66,9.41,6.54,9.41,13.1v1055c0,6.55-4.22,12.42-9.41,13.07Z"/><path class="cls-17" d="M2227.44,2059.34c-139.94-98.08-41.68-405.76-200.87-558-167.1-159.85-414.29,36.16-542.95-136.23-98.35-131.79,16.51-282.9-77-409.64C1255.83,751.05,844.86,995.33,643,778.89c-29.38-31.5-59.21-78.35-76.27-151.23L429.77,608.74c-53.6-7.41-97.89,24.5-97.89,71.23v1684.5c0,46.74,44.29,77.91,97.89,69.62L2394.44,2130.2c24.78-3.83,44.72-32.28,44.72-63.46v-20C2335,2099.06,2269.92,2089.11,2227.44,2059.34Z"/><g class="cls-18"><path class="cls-19" d="M1115.23,1949.85l896.19-99.56c55.21-6.14,97.45-62.18,97.45-129.27V1171.91c0-67.1-42.24-123.14-97.45-129.27l-896.19-99.57c-62.84-7-117.06,52.89-117.06,129.27v748.24C998.17,1897,1052.39,1956.83,1115.23,1949.85Z"/><path class="cls-20" d="M1282.58,1825.45c131.39-80.39,110.73-232.53,239.91-317.25,151.48-99.34,284.87,41,386.52-59.15,43.37-42.74,85.14-133.39,65.33-348,49.55,9.41,86.68,61.09,86.68,122.59v525.44c0,64.21-40.43,117.84-93.26,123.71l-857.57,95.27c-60.14,6.68-112-50.61-112-123.7v-12C1076.84,1862,1185.85,1884.63,1282.58,1825.45Z"/></g><path class="cls-21" d="M2444.83,1229.13l-2-.1c-1.25-.06-2.49-.12-3.72-.2l-2.06-.14-3.7-.26-1.95-.17c-1.27-.11-2.54-.22-3.81-.35l-1.78-.18-4-.44-1.52-.18c-1.45-.18-2.89-.37-4.33-.57l-1.13-.16c-1.62-.22-3.23-.47-4.83-.72l-.59-.09a292.35,292.35,0,0,1-37.14-8.43l0,0c-86.73-25.92-148.42-89.93-150.46-164.51-2.65-97,96.52-179.19,224.75-183.65,124.66-4.33,231.56,66,245.35,159.91.08.51.16,1,.23,1.54.1.77.2,1.54.29,2.32s.17,1.46.24,2.19.14,1.32.2,2c.08.91.15,1.83.21,2.74,0,.52.08,1,.11,1.56.09,1.46.15,2.92.19,4.39,1.36,49.49-23.21,94.32-63.91,127.32q-3.95,3.19-8.08,6.23c-2.75,2-5.58,4-8.46,5.93q-2.16,1.45-4.37,2.85-4.43,2.8-9,5.45t-9.36,5.11c-2.69,1.39-5.43,2.74-8.19,4a274.22,274.22,0,0,1-49.82,17.79c-3.38.85-6.8,1.66-10.25,2.4a304.59,304.59,0,0,1-65.51,6.69c-1.93,0-3.87,0-5.79-.08l-1.8-.06Z"/><path class="cls-22" d="M2209.73,1052.93c2.65,97,104.43,176.22,230.52,176.92,129.75.71,235.47-81.53,232.67-183.71S2560,864.87,2430.4,869.39C2304.45,873.78,2207.08,955.91,2209.73,1052.93Z"/><path class="cls-23" d="M2507.7,1092.71a107.08,107.08,0,0,0,23.4-43.45,65.78,65.78,0,0,0-.36-33.47c-4.7-18-16.6-30-28.09-41.55-8.57-8.63-16.68-16.78-21.5-27.07l-.86-1.83c-2.86-6.05-6.08-12.89-5.78-18a10,10,0,0,0-8.63-10.44,9.9,9.9,0,0,0-11,7.87L2420,1098.21a57.51,57.51,0,0,0-27.6-13.85c-26.83-5.4-52.19,7.68-56.51,29.15s14,43.34,40.85,48.73,52.19-7.68,56.5-29.16l22.82-113.47c13.5,8.53,34.56,27.57,34.46,62.13a55.28,55.28,0,0,1-4.82,4.56,9.92,9.92,0,1,0,12,15.79,75,75,0,0,0,9.16-8.61A6.57,6.57,0,0,0,2507.7,1092.71Z"/><g class="cls-24"><path class="cls-25" d="M2383.13,1183.92c26.22-53.05-3.1-102.33,33.4-137.07,37.4-35.6,88.62-3.81,142.64-33.5,21.06-11.57,44.35-33.49,61-78.13,32,30.24,51.63,68.71,52.78,110.92,2.8,102.18-102.92,184.42-232.67,183.71a290.51,290.51,0,0,1-82.68-12.31A113.61,113.61,0,0,0,2383.13,1183.92Z"/></g><path class="cls-26" d="M1782.54,531.17l-1.6-.08c-1-.05-2-.09-2.92-.15l-1.62-.11c-1-.07-1.94-.13-2.9-.21l-1.54-.13-3-.27-1.39-.15-3.14-.34-1.2-.15-3.4-.44L1759,529c-1.27-.18-2.53-.37-3.79-.57l-.46-.08a227.18,227.18,0,0,1-29.16-6.62l0,0c-68.1-20.35-116.54-70.61-118.14-129.17-2.08-76.18,75.79-140.7,176.47-144.2,97.88-3.4,181.82,51.79,192.65,125.56l.18,1.21c.08.6.16,1.21.23,1.82s.13,1.14.19,1.72.11,1,.15,1.56c.07.71.12,1.43.17,2.15,0,.41.06.81.08,1.22.07,1.15.13,2.29.16,3.45,1.06,38.86-18.23,74.06-50.19,100q-3.09,2.5-6.34,4.9t-6.65,4.65c-1.13.76-2.27,1.5-3.43,2.24-2.31,1.46-4.67,2.89-7.08,4.27s-4.85,2.72-7.35,4c-2.11,1.09-4.26,2.15-6.43,3.17a214.07,214.07,0,0,1-39.12,14q-4,1-8,1.89a240.09,240.09,0,0,1-51.44,5.26c-1.52,0-3,0-4.55-.07l-1.41,0Z"/><path class="cls-27" d="M1597.94,392.82c2.09,76.18,82,138.37,181,138.91,101.87.57,184.88-64,182.69-144.25S1873,245.16,1771.21,248.71C1672.31,252.16,1595.86,316.64,1597.94,392.82Z"/><path class="cls-23" d="M1728.23,329.37l3.25,118.88a16.13,16.13,0,0,0,26.36,12l91.28-65.94a16.11,16.11,0,0,0-3.41-27.06l-94.53-52.95A16.13,16.13,0,0,0,1728.23,329.37Z"/><g class="cls-28"><path class="cls-23" d="M1734.1,495.67c20.58-41.65-2.44-80.35,26.22-107.63,29.36-28,69.59-3,112-26.3,16.54-9.09,34.83-26.3,47.87-61.34,25.11,23.74,40.54,53.94,41.45,87.08,2.19,80.24-80.82,144.82-182.69,144.25a227.65,227.65,0,0,1-64.93-9.66A89.41,89.41,0,0,0,1734.1,495.67Z"/></g><path class="cls-29" d="M1838,646.38c115.43.38,214.22,68.15,235.54,156.77a3.59,3.59,0,0,0,.08.35q1.72,7.28,2.75,14.74c0,.32.1.65.14,1,.3,2.32.55,4.66.75,7,0,.43.06.85.1,1.28.18,2.4.32,4.8.38,7.22,2.84,103.59-100.74,185-229.62,181.83-3.43-.08-6.83-.23-10.23-.43l-1-.06c-3.21-.2-6.4-.46-9.58-.76l-1.48-.15c-3.08-.3-6.13-.67-9.17-1.07l-1.72-.23c-3-.42-6-.87-8.9-1.38l-1.78-.31c-2.94-.52-5.85-1.08-8.75-1.68l-1.67-.37c-2.87-.62-5.73-1.27-8.57-2l-1.52-.39q-3.83-1-7.59-2c-.64-.18-1.28-.35-1.92-.54-2.55-.74-5.07-1.53-7.58-2.35-.54-.17-1.1-.32-1.64-.5l0,0c-86.39-28.52-148.44-96.33-150.56-174C1611.69,727.4,1711,646,1838,646.38Z"/><path class="cls-30" d="M1590,829c2.76,100.9,106.62,185.16,233.64,188.26,128.88,3.14,232.46-78.25,229.63-181.83S1942.36,647.48,1813.55,647C1686.61,646.62,1587.27,728.07,1590,829Z"/><path class="cls-23" d="M1700.58,786.44l4.63,117.71a16,16,0,0,0,16,15.43l205.28-3.79h.73a16.88,16.88,0,0,0,11.38-5,16.14,16.14,0,0,0,4.75-12.09l-5.06-131.46a12.27,12.27,0,0,0-4.2-8.78,12.76,12.76,0,0,0-9.39-3.13l-208.83,14.16A16.47,16.47,0,0,0,1700.58,786.44Zm14.47-2.55a3.54,3.54,0,0,1,5-.54L1796.45,846a18.64,18.64,0,0,0,23.28.26L1916.35,772a3.77,3.77,0,0,1,5.23.59,3.62,3.62,0,0,1-.7,5.13l-96.73,74.14a26.35,26.35,0,0,1-14.79,5.45,25.63,25.63,0,0,1-17.54-5.84l-76.32-62.62A3.54,3.54,0,0,1,1715.05,783.89Z"/><path class="cls-31" d="M1902,884.64c-29-89.62-89-141.16-184.9-149.18-29.71-3.41-43-23.29-45.68-48.71-51.18,33.31-83,84.57-81.39,142.21,2.76,100.9,106.62,185.16,233.64,188.26,75.91,1.85,143-25.64,184.79-69.7C1960.69,946.75,1916.34,924.05,1902,884.64Z"/><path class="cls-32" d="M2563.62,471.91q.14,1.09.24,2.19c.07.61.13,1.21.18,1.82.08.87.14,1.75.2,2.64,0,.48.07,1,.1,1.46.08,1.38.15,2.77.19,4.16a138.57,138.57,0,0,1-.7,18,140.83,140.83,0,0,1-6.67,30.48c-.48,1.42-1,2.82-1.49,4.22a154.08,154.08,0,0,1-7.25,16.48,173.91,173.91,0,0,1-23.25,34.36q-3.09,3.59-6.38,7t-6.78,6.8a220.09,220.09,0,0,1-30.91,24.57q-2.11,1.4-4.26,2.75-4.31,2.72-8.77,5.27a255.55,255.55,0,0,1-33,15.88q-5,2-10.05,3.76t-10.31,3.39q-5.21,1.59-10.53,3a286.91,286.91,0,0,1-61.46,9.21c-1.82.08-3.64.13-5.46.17l-1.74,0c-1.24,0-2.48,0-3.71,0h-2l-3.45,0-2,0c-1.14,0-2.27-.05-3.4-.09l-2-.08-3.45-.16-1.85-.11q-1.78-.1-3.57-.24l-1.66-.12c-1.27-.1-2.54-.21-3.8-.33l-1.39-.13-4.17-.45-1-.1c-1.6-.19-3.21-.4-4.8-.61l-.28,0a261,261,0,0,1-29.76-5.8l0,0c-82.13-21.11-140.78-80-142.74-151.76-2.55-93.24,91.59-175.87,212.71-184.72,117-8.55,216.8,54.48,229.86,143.3.08.57.17,1.15.25,1.73S2563.54,471.22,2563.62,471.91Z"/><path class="cls-33" d="M2106,509.94c2.55,93.24,98.82,164.93,217.42,160,121.32-5,219.59-88,216.93-185.11S2435.21,316.36,2314,325.35C2195.51,334.13,2103.45,416.7,2106,509.94Z"/><path class="cls-23" d="M2220.88,527.62q17.1,18.27,45.56,28.53a164.84,164.84,0,0,0,60.85,9.37,177.32,177.32,0,0,0,20.59-1.83l9-1.2,7,5.85a156.62,156.62,0,0,0,44.38,25.94,114.22,114.22,0,0,1-11.86-27l-4.7-15.12,13.59-8.31q20.31-12.32,31.22-28.73t10.41-34.19q-.58-21.74-17.68-40t-45.57-28.53a171.77,171.77,0,0,0-121.07,3.31q-27.87,11.81-43.94,31t-15.48,40.92Q2203.79,509.35,2220.88,527.62Z"/><g class="cls-34"><path class="cls-35" d="M2269.76,628.46c24.61-51.94-3-98,31.31-132.71,35.06-35.55,83-7.19,133.45-37.67,19.63-11.87,41.3-33.67,56.74-76.84,29.73,27.6,48,63.47,49.09,103.61C2543,582,2444.74,664.93,2323.42,670a263.34,263.34,0,0,1-77.7-8.15A116.22,116.22,0,0,0,2269.76,628.46Z"/></g><path class="cls-36" d="M1895.22,2613.81l.56,4.43a10.7,10.7,0,0,1-12.07,12c-19.5-2.73-42.5-6.47-52.42-16.68-14.1-14.53-4-27.53,10-17.85,10.92,7.57,33,9.61,46.9,11.16A8,8,0,0,1,1895.22,2613.81Z"/><path class="cls-37" d="M1867.54,2584.38c-.94,1.38,1.66,14,3,20a7.68,7.68,0,0,0,4,5.25,19.71,19.71,0,0,0,9.78,2.29,7.49,7.49,0,0,0,7-7l1.08-15.94Z"/><path class="cls-38" d="M1864.1,2596.42l31.64,6.51s40.07-90.52,122.48-85.81,153.54,122.55,153.54,122.55l208.88,32.66A1031.33,1031.33,0,0,0,2287,2504.75c-69.52-101-110.67-160.73-180.83-171.32-81-12.23-149.22,48.81-167,64.77-15.16,13.56-75.54,67.59-79.35,149.79A180.57,180.57,0,0,0,1864.1,2596.42Z"/><path class="cls-39" d="M1754.41,2640.26c-12.17,6-3.25,6.47-36.48-5.41-12.56-4.49-23.71-.63-24.78,5.38s12.63,9.3,41.67,22.75c28,12.95,41.11,9.35,39.71-7.6-.22-2.72-1.73-9.57-3.61-11.48C1765.16,2638,1754.41,2640.26,1754.41,2640.26Z"/><path class="cls-37" d="M1757,2621.2c2.5,3.73,8.25,12.88,11.4,22.2a7.86,7.86,0,0,1-9.25,10.08l-4.63-1.06a12.2,12.2,0,0,1-6.61-4l-20-23.62a4.55,4.55,0,0,1,3.87-7.47l21.82,1.93A4.47,4.47,0,0,1,1757,2621.2Z"/><path class="cls-40" d="M1727.35,2632.12l43.57-1.18a215.15,215.15,0,0,1-23.27-109.52c104.63,22.41,177.38,58.33,225.29,87.9,27.12,16.73,47.68,32.3,112.79,72.73,70.91,44,106.94,66.21,135.32,73.85,32.08,8.63,146.35,16.28,234.65-23.31-53.82-96.61-197.59-221.1-346.83-313.6-78.86-48.87-191.89-118.93-316.46-86.41-25.63,6.69-123.89,32.34-146.3,114.67C1629.16,2509.51,1661.26,2583.34,1727.35,2632.12Z"/><path class="cls-41" d="M2277.24,1984.91a556.84,556.84,0,0,1,138.46,1.9c19.88,2.78,91.1,13.82,177.13,56.56,73,36.25,129.83,64.49,136.59,115.39.35,2.68,5.18,43.7-21.79,70.14-67.46,66.14-257.48-33.86-272.59-1.84-5.08,10.77,14.79,25.56,9.42,33-9.8,13.52-93.92-11-140.12-67.12C2239.58,2114.21,2272.26,2001.23,2277.24,1984.91Z"/><path class="cls-42" d="M1969.73,2040.57c-96.5,50.22-144,121-152.89,134.68-18.76,28.77-77.78,119.29-43.28,168.12,22.3,31.57,73.25,31,79.79,30.88,37.64-.46,49.94-18.75,123.39-52.34,49.81-22.78,74.72-34.17,94.45-31.27,65.46,9.63,101.18,105.06,108.21,123.85,29.53,78.91-1.16,98.21,23.67,171.71,8,23.74,47.45,129,146,156.61,72.54,20.32,135.66-13,151.19-21.22,95.47-50.43,120.1-152.7,126.7-180.14,20.5-85.12-1.87-154.71-16.48-200.17-24-74.52-70.69-132.36-164.15-248-52.92-65.49-70.69-79.28-91.37-89.91-57.49-29.56-114.18-22.8-194-13.28C2097.64,1997.6,2038.81,2004.62,1969.73,2040.57Z"/><path class="cls-23" d="M2175,1929.67l11.28,24.57a45.76,45.76,0,0,0,32.45,25.75l36.13,9.27a4.65,4.65,0,0,1,.55,8.85c-22.25,8.36-70.58,23-125.19,17.32-75-7.76-20.07-16.67-1.91-17.94s28.55-9.25,33.63-22.14-9.1-33.18-9.1-33.18Z"/><path class="cls-43" d="M2164.25,1971.74c-2.54-1.39-23.24-3.91-26.1-15-3.87-15.11,9.71-33.5,11.4-36.46,7.08-12.39,8.86-14.06,12.16-16.16l4.57-2.68.54-.19c2.92-1,12.79-1,14.78-.57,6.35,1.51,12.56,27.66,9.79,64.38.23,1.41.45,2.83.67,4.26C2192.61,1973,2164.07,1973.05,2164.25,1971.74Z"/><path class="cls-44" d="M2144.78,1899.06c2.39,6.93,11.85,14.09,16.07,17.29a18.83,18.83,0,0,1,4,4.6,5.58,5.58,0,0,1,.62,1.36c2.33,7.23-9.27,15.42-7.14,18.68,1.55,2.37,9.37-.57,10.25,1.46s-5.71,5.69-4.77,8c.7,1.73,4.71.25,7.15,2.93,1.21,1.33.82,2.36,2.05,6.39a36.82,36.82,0,0,0,2.47,6.17c3.79,6.77,14.88,9.46,17.08,6.84.62-.73.12-1.37.78-3.86a19.88,19.88,0,0,1,2.3-5c2.39-3.78,8-6.4,13.73-10.32,10.57-7.25,13.54-13.57,14.44-15.71.1-.24.19-.46.26-.66a9.58,9.58,0,0,0,.4-1.09c2.39-7.73-3.73-16.07-7-20a106.17,106.17,0,0,0-24.3-21c-3.17-2-34-21-45.26-11.59C2143.87,1887,2143.16,1894.35,2144.78,1899.06Z"/><path class="cls-43" d="M2162.5,1938.41c2.88-3.77,7.71-.06,7.62,4.91s-5,10-9.65,8.92S2158.63,1943.49,2162.5,1938.41Z"/><path class="cls-45" d="M2318.86,2658.42c-25.8-79.2,79.69-178.4,36.11-237.07-30.92-41.64-98.81-11.56-133.45-59.66s16.08-101.66-17.27-147.58c-33.7-46.39-129.55-52.44-185.27-15.71-34.61,22.82-25.22,43.36-67.51,80.08-7.14,6.2-92,78.2-152.29,45.53-5.07-2.75-21.44-12.52-34.1-38.32-4,21.27-2.8,41.71,8.48,57.68,22.3,31.57,73.25,31,79.79,30.88,37.64-.46,49.94-18.75,123.39-52.34,49.81-22.78,74.72-34.17,94.45-31.27,65.46,9.63,101.18,105.06,108.21,123.85,29.53,78.91-1.16,98.21,23.67,171.71,8,23.74,47.45,129,146,156.61,34.06,9.54,66,7.2,91.91,1.24C2359.57,2721,2328.75,2688.79,2318.86,2658.42Z"/><image width="2294" height="814" transform="translate(1045.46 1250.71) scale(0.42 0.67)" xlink:href="IPTVNAME.png"/></g></g></svg>